<?xml version="1.0" encoding="UTF-8" standalone="no"?>
<!DOCTYPE svg PUBLIC "-//W3C//DTD SVG 1.1//EN" "http://www.w3.org/Graphics/SVG/1.1/DTD/svg11.dtd">
<svg width="100%" height="100%" viewBox="0 0 1080 1080" version="1.1" xmlns="http://www.w3.org/2000/svg" xmlns:xlink="http://www.w3.org/1999/xlink" xml:space="preserve" xmlns:serif="http://www.serif.com/" style="fill-rule:evenodd;clip-rule:evenodd;stroke-linejoin:round;stroke-miterlimit:2;">
    <rect x="0" y="0" width="1080" height="1080" style="fill:rgb(38,38,38);"/>
    <path d="M269.239,368.023L269.239,509L180.834,509L180.834,127.919L304.81,127.919C332.36,127.919 355.813,130.796 375.168,136.55C394.697,142.13 410.564,149.976 422.77,160.089C435.15,170.203 444.13,182.147 449.71,195.922C455.29,209.697 458.08,224.693 458.08,240.909C458.08,253.289 456.423,264.972 453.11,275.957C449.797,286.942 444.828,297.143 438.202,306.559C431.75,315.8 423.729,324.083 414.139,331.406C404.723,338.73 393.825,344.745 381.445,349.453C387.374,352.417 392.866,356.079 397.923,360.438C403.154,364.798 407.687,370.116 411.523,376.393L492.605,509L412.57,509C397.748,509 387.112,503.42 380.66,492.261L317.365,381.624C314.575,376.742 311.262,373.254 307.426,371.162C303.764,369.07 298.533,368.023 291.733,368.023L269.239,368.023ZM269.239,307.082L304.81,307.082C316.842,307.082 327.042,305.6 335.412,302.635C343.956,299.497 350.931,295.225 356.336,289.819C361.741,284.414 365.665,278.137 368.106,270.988C370.547,263.664 371.768,255.818 371.768,247.448C371.768,230.709 366.275,217.631 355.29,208.215C344.479,198.799 327.652,194.091 304.81,194.091L269.239,194.091L269.239,307.082Z" style="fill:white;fill-rule:nonzero;"/>
    <path d="M606.636,127.919C610.472,127.919 613.698,128.093 616.314,128.442C618.929,128.79 621.283,129.488 623.376,130.534C625.468,131.406 627.473,132.714 629.391,134.457C631.309,136.201 633.489,138.555 635.93,141.519L816.924,370.377C816.227,363.054 815.704,355.992 815.355,349.192C815.006,342.217 814.832,335.678 814.832,329.575L814.832,127.919L892.774,127.919L892.774,509L846.741,509C839.941,509 834.187,507.954 829.479,505.861C824.771,503.769 820.237,499.933 815.878,494.353L636.192,267.326C636.715,273.952 637.151,280.491 637.5,286.942C637.848,293.219 638.023,299.148 638.023,304.728L638.023,509L560.08,509L560.08,127.919L606.636,127.919Z" style="fill:white;fill-rule:nonzero;"/>
    <path d="M183.133,948.552L183.133,567.47L323.325,567.47C349.655,567.47 372.061,569.911 390.544,574.793C409.027,579.676 424.11,586.563 435.793,595.456C447.475,604.349 455.932,615.16 461.163,627.889C466.569,640.617 469.271,654.828 469.271,670.522C469.271,679.066 468.051,687.348 465.61,695.369C463.168,703.216 459.332,710.626 454.101,717.601C448.87,724.576 442.157,730.94 433.962,736.694C425.767,742.274 415.915,747.156 404.406,751.341C429.515,757.444 448.086,767.383 460.117,781.158C472.148,794.759 478.164,812.283 478.164,833.73C478.164,849.946 475.025,865.029 468.748,878.979C462.471,892.928 453.229,905.134 441.024,915.596C428.992,925.884 414.084,933.992 396.298,939.92C378.513,945.674 358.199,948.552 335.357,948.552L183.133,948.552ZM271.538,786.912L271.538,881.856L333.787,881.856C345.47,881.856 354.973,880.374 362.297,877.409C369.794,874.445 375.636,870.609 379.821,865.901C384.005,861.193 386.882,855.875 388.452,849.946C390.021,844.018 390.806,838.002 390.806,831.899C390.806,824.925 389.847,818.647 387.929,813.068C386.185,807.488 383.046,802.78 378.513,798.944C374.154,795.108 368.312,792.143 360.989,790.051C353.665,787.958 344.424,786.912 333.264,786.912L271.538,786.912ZM271.538,727.801L317.571,727.801C327.336,727.801 336.141,727.104 343.988,725.709C351.834,724.314 358.46,721.873 363.866,718.386C369.446,714.898 373.63,710.103 376.42,704C379.385,697.897 380.867,690.225 380.867,680.984C380.867,671.917 379.733,664.419 377.467,658.49C375.2,652.387 371.712,647.505 367.004,643.843C362.297,640.182 356.281,637.566 348.957,635.997C341.808,634.427 333.264,633.643 323.325,633.643L271.538,633.643L271.538,727.801Z" style="fill:white;fill-rule:nonzero;"/>
    <path d="M924.403,758.452C924.403,785.984 919.611,811.6 910.027,835.298C900.617,858.997 887.286,879.646 870.035,897.246C852.784,914.672 831.96,928.351 807.565,938.283C783.343,948.216 756.421,953.182 726.797,953.182C697.174,953.182 670.164,948.216 645.768,938.283C621.373,928.351 600.462,914.672 583.037,897.246C565.785,879.646 552.368,858.997 542.784,835.298C533.374,811.6 528.669,785.984 528.669,758.452C528.669,730.919 533.374,705.304 542.784,681.605C552.368,657.907 565.785,637.344 583.037,619.919C600.462,602.493 621.373,588.814 645.768,578.882C670.164,568.949 697.174,563.983 726.797,563.983C756.421,563.983 783.343,569.036 807.565,579.143C831.96,589.076 852.784,602.755 870.035,620.18C887.286,637.606 900.617,658.168 910.027,681.867C919.611,705.565 924.403,731.094 924.403,758.452ZM833.964,758.452C833.964,739.632 831.525,722.729 826.645,707.744C821.766,692.583 814.709,679.776 805.473,669.32C796.412,658.865 785.26,650.849 772.016,645.273C758.773,639.697 743.7,636.909 726.797,636.909C709.72,636.909 694.473,639.697 681.055,645.273C667.812,650.849 656.572,658.865 647.337,669.32C638.276,679.776 631.305,692.583 626.426,707.744C621.547,722.729 619.107,739.632 619.107,758.452C619.107,777.446 621.547,794.523 626.426,809.683C631.305,824.669 638.276,837.389 647.337,847.845C656.572,858.3 667.812,866.316 681.055,871.892C694.473,877.294 709.72,879.995 726.797,879.995C743.7,879.995 758.773,877.294 772.016,871.892C785.26,866.316 796.412,858.3 805.473,847.845C814.709,837.389 821.766,824.669 826.645,809.683C831.525,794.523 833.964,777.446 833.964,758.452Z" style="fill:rgb(2,223,223);fill-rule:nonzero;"/>
</svg>
